<svg width="636" height="294" viewBox="0 0 636 294" fill="none" xmlns="http://www.w3.org/2000/svg">
<path d="M631 2H5C3.34315 2 2 3.34315 2 5V36C2 37.6569 3.34316 39 5.00001 39H631C632.657 39 634 37.6569 634 36V5C634 3.34315 632.657 2 631 2Z" fill="#6052A2" stroke="black" stroke-width="4" stroke-miterlimit="10"/>
<path d="M36.2601 20.7498C36.2601 26.245 31.8053 30.6998 26.3101 30.6998C20.8149 30.6998 16.3601 26.245 16.3601 20.7498C16.3601 15.2546 20.8149 10.7998 26.3101 10.7998C31.8053 10.7998 36.2601 15.2546 36.2601 20.7498Z" fill="#DCC7E1" stroke="black" stroke-width="3"/>
<path d="M70.0399 20.7498C70.0399 26.245 65.5851 30.6998 60.0899 30.6998C54.5947 30.6998 50.1399 26.245 50.1399 20.7498C50.1399 15.2546 54.5947 10.7998 60.0899 10.7998C65.5851 10.7998 70.0399 15.2546 70.0399 20.7498Z" fill="#DCC7E1" stroke="black" stroke-width="3"/>
<path d="M105.05 20.7498C105.05 26.245 100.595 30.6998 95.0999 30.6998C89.6047 30.6998 85.1499 26.245 85.1499 20.7498C85.1499 15.2546 89.6047 10.7998 95.0999 10.7998C100.595 10.7998 105.05 15.2546 105.05 20.7498Z" fill="#DCC7E1" stroke="black" stroke-width="3"/>
<path d="M3 42H633C633.552 42 634 42.4477 634 43V291C634 291.552 633.552 292 633 292H3.00001C2.44771 292 2 291.552 2 291V43C2 42.4477 2.44771 42 3 42Z" fill="white" stroke="black" stroke-width="4"/>
</svg>
