<svg width="159" height="15" viewBox="0 0 159 15" fill="none" xmlns="http://www.w3.org/2000/svg">
<path d="M15.04 15H11.1V10.94H4.9V15H0.96V7H3V2.96H5.02V0.94H10.98V2.96H13V7.02H15.04V15ZM10.98 8.92V4.98H8.96V2.96H7.04V4.98H5.02V8.92H10.98ZM31.0166 8.92H28.9966V13.1H31.0166V15H27.0766V12.96H25.0566V10.94H20.8766V15H16.9566V0.94H28.9966V2.96H31.0166V8.92ZM26.9766 8.92V2.96H20.9966V8.92H26.9766ZM46.9931 2.84H42.9331V15H36.9731V2.84H32.9331V0.94H46.9931V2.84ZM62.9697 12.98H60.9497V15H50.9297V12.96H48.9097V11.06H52.8497V13.1H59.0297V8.92H50.9297V6.88H48.9097V2.96H50.9297V0.94H60.9497V2.96H62.9697V4.86H59.0297V2.84H52.8297V7.02H60.9497V9.04H62.9697V12.98ZM78.9463 2.84H74.8863V15H68.9263V2.84H64.8863V0.94H78.9463V2.84ZM94.9228 15H90.9828V10.94H84.7828V15H80.8628V7H82.8828V2.96H84.9028V0.94H90.8828V2.96H92.9028V7.02H94.9228V15ZM90.8828 8.92V4.98H88.8428V2.96H86.9428V4.98H84.9028V8.92H90.8828ZM110.899 2.84H106.839V15H100.879V2.84H96.8394V0.94H110.899V2.84ZM124.856 15H114.836V13.08H116.876V2.84H114.836V0.94H124.856V2.84H122.816V13.1H124.856V15ZM142.853 12.98H140.833V15H130.813V12.96H128.793V2.96H130.813V0.94H140.833V2.96H142.853V12.98ZM138.813 12.98V2.96H132.833V12.98H138.813ZM158.829 15H154.889V12.96H152.869V10.94H150.829L150.789 8.94H148.729L148.689 15H144.769V0.94H148.709V2.96H150.729V5H152.769L152.789 7.02H154.869L154.889 0.94H158.829V15Z" fill="black"/>
</svg>
