<svg width="145" height="132" viewBox="0 0 145 132" fill="none" xmlns="http://www.w3.org/2000/svg">
<path d="M106.509 1H1V131H143.366V24.6586L106.509 1Z" fill="#6052A2" stroke="#341A1A" stroke-width="2" stroke-miterlimit="10"/>
<path d="M24.5901 1H98.6382V37.7298C98.6382 39.0125 97.501 40.0712 96.074 40.0712H24.5901V1Z" fill="#6052A2" stroke="#341A1A" stroke-width="2" stroke-miterlimit="10"/>
<path d="M98.6382 57.2146H24.5901V131H98.6382V57.2146Z" fill="#6052A2" stroke="#341A1A" stroke-width="2" stroke-miterlimit="10"/>
<path d="M98.6605 1H42.7399V40.0712H98.6605V1Z" fill="white" stroke="#341A1A" stroke-width="2" stroke-linecap="round" stroke-linejoin="round"/>
<path d="M98.6382 72.3219H24.5901V131H98.6382V72.3219Z" fill="white" stroke="#341A1A" stroke-width="2" stroke-linecap="round" stroke-linejoin="round"/>
<path d="M32.6839 87.6737H90.5667" stroke="#341A1A" stroke-linecap="round" stroke-linejoin="round"/>
<path d="M32.6839 97.7114H90.5667" stroke="#341A1A" stroke-linecap="round" stroke-linejoin="round"/>
<path d="M32.6839 107.728H90.5667" stroke="#341A1A" stroke-linecap="round" stroke-linejoin="round"/>
<path d="M32.6839 117.766H90.5667" stroke="#341A1A" stroke-linecap="round" stroke-linejoin="round"/>
<path d="M126.755 39.1554L135.696 34.1061" stroke="#341A1A" stroke-width="0.5" stroke-linecap="round" stroke-linejoin="round"/>
<path d="M126.755 45.935L135.696 40.8856" stroke="#341A1A" stroke-width="0.5" stroke-linecap="round" stroke-linejoin="round"/>
<path d="M126.755 52.7153L135.696 47.666" stroke="#341A1A" stroke-width="0.5" stroke-linecap="round" stroke-linejoin="round"/>
<path d="M126.755 59.4949L135.696 54.4456" stroke="#341A1A" stroke-width="0.5" stroke-linecap="round" stroke-linejoin="round"/>
<path d="M126.755 66.2956L135.696 61.226" stroke="#341A1A" stroke-width="0.5" stroke-linecap="round" stroke-linejoin="round"/>
<path d="M126.755 73.0753L135.696 68.026" stroke="#341A1A" stroke-width="0.5" stroke-linecap="round" stroke-linejoin="round"/>
<path d="M126.755 79.8557L135.696 74.8064" stroke="#341A1A" stroke-width="0.5" stroke-linecap="round" stroke-linejoin="round"/>
<path d="M126.755 86.6353L135.696 81.5859" stroke="#341A1A" stroke-width="0.5" stroke-linecap="round" stroke-linejoin="round"/>
<path d="M126.755 93.4148L135.696 88.3655" stroke="#341A1A" stroke-width="0.5" stroke-linecap="round" stroke-linejoin="round"/>
<path d="M126.755 100.195L135.696 95.1459" stroke="#341A1A" stroke-width="0.5" stroke-linecap="round" stroke-linejoin="round"/>
<path d="M126.755 106.996L135.696 101.926" stroke="#341A1A" stroke-width="0.5" stroke-linecap="round" stroke-linejoin="round"/>
<path d="M126.755 113.776L135.696 108.726" stroke="#341A1A" stroke-width="0.5" stroke-linecap="round" stroke-linejoin="round"/>
<path d="M126.755 120.556L135.696 115.507" stroke="#341A1A" stroke-width="0.5" stroke-linecap="round" stroke-linejoin="round"/>
<path d="M126.755 127.336L135.696 122.286" stroke="#341A1A" stroke-width="0.5" stroke-linecap="round" stroke-linejoin="round"/>
</svg>
