<?xml version="1.0" encoding="UTF-8"?>
<svg id="Layer_2" data-name="Layer 2" xmlns="http://www.w3.org/2000/svg" xmlns:xlink="http://www.w3.org/1999/xlink" viewBox="0 0 1442.58 1027.88">
  <defs>
    <style>
      .cls-1 {
        fill: url(#linear-gradient);
        stroke-width: 0px;
      }

      .cls-2 {
        fill: none;
        stroke: #fff;
        stroke-miterlimit: 10;
      }
    </style>
    <linearGradient id="linear-gradient" x1="0" y1="512.82" x2="1442.58" y2="512.82" gradientUnits="userSpaceOnUse">
      <stop offset=".03" stop-color="#969" stop-opacity=".9"/>
      <stop offset=".08" stop-color="#ae7b82" stop-opacity=".9"/>
      <stop offset=".15" stop-color="#c3906d" stop-opacity=".9"/>
      <stop offset=".19" stop-color="#cb9866" stop-opacity=".9"/>
      <stop offset=".8" stop-color="#cb9866" stop-opacity=".9"/>
      <stop offset=".87" stop-color="#b88578" stop-opacity=".9"/>
      <stop offset=".96" stop-color="#969" stop-opacity=".9"/>
    </linearGradient>
  </defs>
  <g id="Layer_3" data-name="Layer 3">
    <rect class="cls-1" width="1442.58" height="1025.65"/>
  </g>
  <g id="grid_002">
    <g>
      <rect class="cls-2" x="1.29" y="3.38" width="1440" height="1024"/>
      <line class="cls-2" x1="1.29" y1="986.42" x2="1441.29" y2="986.42"/>
      <line class="cls-2" x1="1.29" y1="945.46" x2="1441.29" y2="945.46"/>
      <line class="cls-2" x1="1.29" y1="904.5" x2="1441.29" y2="904.5"/>
      <line class="cls-2" x1="1.29" y1="863.54" x2="1441.29" y2="863.54"/>
      <line class="cls-2" x1="1.29" y1="822.58" x2="1441.29" y2="822.58"/>
      <line class="cls-2" x1="1.29" y1="781.62" x2="1441.29" y2="781.62"/>
      <line class="cls-2" x1="1.29" y1="740.66" x2="1441.29" y2="740.66"/>
      <line class="cls-2" x1="1.29" y1="699.7" x2="1441.29" y2="699.7"/>
      <line class="cls-2" x1="1.29" y1="658.74" x2="1441.29" y2="658.74"/>
      <line class="cls-2" x1="1.29" y1="617.78" x2="1441.29" y2="617.78"/>
      <line class="cls-2" x1="1.29" y1="576.82" x2="1441.29" y2="576.82"/>
      <line class="cls-2" x1="1.29" y1="535.86" x2="1441.29" y2="535.86"/>
      <line class="cls-2" x1="1.29" y1="494.9" x2="1441.29" y2="494.9"/>
      <line class="cls-2" x1="1.29" y1="453.94" x2="1441.29" y2="453.94"/>
      <line class="cls-2" x1="1.29" y1="412.98" x2="1441.29" y2="412.98"/>
      <line class="cls-2" x1="1.29" y1="372.02" x2="1441.29" y2="372.02"/>
      <line class="cls-2" x1="1.29" y1="331.06" x2="1441.29" y2="331.06"/>
      <line class="cls-2" x1="1.29" y1="290.1" x2="1441.29" y2="290.1"/>
      <line class="cls-2" x1="1.29" y1="249.14" x2="1441.29" y2="249.14"/>
      <line class="cls-2" x1="1.29" y1="208.18" x2="1441.29" y2="208.18"/>
      <line class="cls-2" x1="1.29" y1="167.22" x2="1441.29" y2="167.22"/>
      <line class="cls-2" x1="1.29" y1="126.26" x2="1441.29" y2="126.26"/>
      <line class="cls-2" x1="1.29" y1="85.3" x2="1441.29" y2="85.3"/>
      <line class="cls-2" x1="1.29" y1="44.34" x2="1441.29" y2="44.34"/>
      <line class="cls-2" x1="1383.69" y1="3.38" x2="1383.69" y2="1027.38"/>
      <line class="cls-2" x1="1326.09" y1="3.38" x2="1326.09" y2="1027.38"/>
      <line class="cls-2" x1="1268.49" y1="3.38" x2="1268.49" y2="1027.38"/>
      <line class="cls-2" x1="1210.89" y1="3.38" x2="1210.89" y2="1027.38"/>
      <line class="cls-2" x1="1153.29" y1="3.38" x2="1153.29" y2="1027.38"/>
      <line class="cls-2" x1="1095.69" y1="3.38" x2="1095.69" y2="1027.38"/>
      <line class="cls-2" x1="1038.09" y1="3.38" x2="1038.09" y2="1027.38"/>
      <line class="cls-2" x1="980.49" y1="3.38" x2="980.49" y2="1027.38"/>
      <line class="cls-2" x1="922.89" y1="3.38" x2="922.89" y2="1027.38"/>
      <line class="cls-2" x1="865.29" y1="3.38" x2="865.29" y2="1027.38"/>
      <line class="cls-2" x1="807.69" y1="3.38" x2="807.69" y2="1027.38"/>
      <line class="cls-2" x1="750.09" y1="3.38" x2="750.09" y2="1027.38"/>
      <line class="cls-2" x1="692.49" y1="3.38" x2="692.49" y2="1027.38"/>
      <line class="cls-2" x1="634.89" y1="3.38" x2="634.89" y2="1027.38"/>
      <line class="cls-2" x1="577.29" y1="3.38" x2="577.29" y2="1027.38"/>
      <line class="cls-2" x1="519.69" y1="3.38" x2="519.69" y2="1027.38"/>
      <line class="cls-2" x1="462.09" y1="3.38" x2="462.09" y2="1027.38"/>
      <line class="cls-2" x1="404.49" y1="3.38" x2="404.49" y2="1027.38"/>
      <line class="cls-2" x1="346.89" y1="3.38" x2="346.89" y2="1027.38"/>
      <line class="cls-2" x1="289.29" y1="3.38" x2="289.29" y2="1027.38"/>
      <line class="cls-2" x1="231.69" y1="3.38" x2="231.69" y2="1027.38"/>
      <line class="cls-2" x1="174.09" y1="3.38" x2="174.09" y2="1027.38"/>
      <line class="cls-2" x1="116.49" y1="3.38" x2="116.49" y2="1027.38"/>
      <line class="cls-2" x1="58.89" y1="3.38" x2="58.89" y2="1027.38"/>
    </g>
  </g>
</svg>